<?xml version="1.0" encoding="utf-8"?>
<!-- Generator: Adobe Illustrator 19.2.1, SVG Export Plug-In . SVG Version: 6.00 Build 0)  -->
<svg version="1.1" id="Layer_1" xmlns="http://www.w3.org/2000/svg" xmlns:xlink="http://www.w3.org/1999/xlink" x="0px" y="0px"
	 viewBox="0 0 48 72.2" style="enable-background:new 0 0 48 72.2;" xml:space="preserve">
<style type="text/css">
	.st0{fill:#FFFFFF;}
</style>
<g>
	<path class="st0" d="M1.5,69.2C0.7,69.3,0,69.9,0,70.7c0,0.8,0.7,1.5,1.5,1.5S3,71.5,3,70.7C3,69.9,2.3,69.2,1.5,69.2z"/>
	<path class="st0" d="M1.5,0C0.7,0,0,0.6,0,1.5c0,0,0,0.1,0,0.1c0,0,0,0.1,0,0.1c0,0.8,0.7,1.5,1.5,1.5S3,2.6,3,1.8c0,0,0-0.1,0-0.1
		c0,0,0-0.1,0-0.1C3,0.7,2.3,0,1.5,0z"/>
	<path class="st0" d="M1.5,34.6c-0.8,0-1.5,0.6-1.5,1.5c0,0.8,0.7,1.5,1.5,1.5S3,36.9,3,36.1S2.3,34.6,1.5,34.6z"/>
</g>
</svg>
