<?xml version="1.0" encoding="utf-8"?>
<!-- Generator: Adobe Illustrator 19.2.1, SVG Export Plug-In . SVG Version: 6.00 Build 0)  -->
<svg version="1.1" id="Layer_1" xmlns="http://www.w3.org/2000/svg" xmlns:xlink="http://www.w3.org/1999/xlink" x="0px" y="0px"
	 viewBox="0 0 994 246" style="enable-background:new 0 0 994 246;" xml:space="preserve">
<style type="text/css">
	.st0{fill:#5067B0;}
	.st1{fill:#FFFFFF;}
</style>
<g>
	<g>
		<path class="st0" d="M126.3,95.4H30.6c-3.4,0-6.1,2.7-6.1,6.1v27.4c0,3.4,2.7,6.1,6.1,6.1h96.3c11.3,0,20.3-9.4,19.8-20.8
			C146.2,103.6,137,95.4,126.3,95.4z"/>
		<path class="st1" d="M81.9,160.2H30.6c-3.4,0-6.1,2.7-6.1,6.1v46.4c0,3.4,2.7,6.1,6.1,6.1h78.1c4.7,0,7.6-5.1,5.3-9.2l-26.8-46.4
			C86.1,161.3,84,160.2,81.9,160.2z"/>
		<path class="st1" d="M143.1,11.6H30.6c-3.4,0-6.1,2.7-6.1,6.1v46.4c0,3.4,2.7,6.1,6.1,6.1h102.1c24.8,0,45,20.1,45,45v0
			c0,24.8-20.1,45-45,45H125c-4.7,0-7.6,5.1-5.3,9.2l26.6,46c1.2,2.1,3.5,3.2,5.8,3c53-4.6,94.6-49,94.6-103.2v0
			C246.6,58,200.3,11.6,143.1,11.6z"/>
	</g>
</g>
<g>
	<path class="st1" d="M403,174.4h6.6l14.5,39l3.7,0.6v3.1h-17v-3.1l4-0.4l0.5-0.8l-3.8-10.7h-13.8l-3.8,10.7l0.6,0.8l4,0.5v3.1H385
		v-3.1l3.8-0.6L403,174.4z M404.4,183l-5.5,15.6H410L404.4,183z"/>
	<path class="st1" d="M430.9,191.1h-4.1v-2.4l4.6-2.6l3.3-6.6h4v7.8h9.3v3.8h-9.3v15.7c0,2.4,0.4,4,1.1,4.8c0.8,0.9,2.1,1.3,4.1,1.3
		c0.8,0,1.5,0,2.2-0.1c0.7-0.1,1.3-0.2,1.9-0.3v3c-1.8,0.7-3.5,1.2-5.2,1.5c-1.6,0.3-3.1,0.5-4.5,0.5c-1.1,0-2.1-0.1-2.9-0.3
		s-1.6-0.6-2.3-1c-0.8-0.6-1.4-1.2-1.8-2.1c-0.3-0.8-0.5-2.4-0.5-4.6V191.1z"/>
	<path class="st1" d="M453.5,191.1h-4.1v-2.4l4.6-2.6l3.3-6.6h4v7.8h9.3v3.8h-9.3v15.7c0,2.4,0.4,4,1.1,4.8c0.8,0.9,2.1,1.3,4.1,1.3
		c0.8,0,1.5,0,2.2-0.1c0.7-0.1,1.3-0.2,1.9-0.3v3c-1.8,0.7-3.5,1.2-5.2,1.5c-1.6,0.3-3.1,0.5-4.5,0.5c-1.1,0-2.1-0.1-2.9-0.3
		s-1.6-0.6-2.3-1c-0.8-0.6-1.4-1.2-1.8-2.1c-0.3-0.8-0.5-2.4-0.5-4.6V191.1z"/>
	<path class="st1" d="M489.4,185.7c4.8,0,8.7,1.5,11.5,4.4c2.9,2.9,4.3,6.9,4.3,11.9c0,4.7-1.5,8.5-4.5,11.4
		c-3,2.9-6.9,4.3-11.9,4.3c-4.7,0-8.6-1.5-11.5-4.4c-2.9-2.9-4.4-6.7-4.4-11.5c0-4.9,1.5-8.8,4.5-11.7
		C480.6,187.2,484.5,185.7,489.4,185.7z M489.2,189.1c-2.3,0-4.1,1.1-5.4,3.3c-1.3,2.2-1.9,5.3-1.9,9.2c0,4,0.6,7.2,1.9,9.4
		c1.3,2.2,3.1,3.4,5.3,3.4c2.4,0,4.2-1.1,5.5-3.3c1.3-2.2,1.9-5.3,1.9-9.3c0-4-0.7-7.1-2-9.4C493.3,190.2,491.5,189.1,489.2,189.1z"
		/>
	<path class="st1" d="M509,217.2v-2.8l3.4-0.2l0.9-1v-21.8h-4.6v-2.5l9.3-3h3l-0.3,6.4c1.1-1.2,2.2-2.3,3.5-3.4
		c1.2-1.1,2.5-2.1,3.9-3.1c0.3,0,0.6-0.1,0.8-0.1c0.2,0,0.4,0,0.6,0c0.7,0,1.4,0.1,2,0.3c0.7,0.2,1.4,0.4,2.1,0.8l-0.8,8.7h-3.3
		c-0.5-0.8-1-1.4-1.7-1.7c-0.7-0.4-1.5-0.6-2.4-0.6c-0.5,0-1.2,0.1-1.9,0.4c-0.7,0.3-1.6,0.7-2.5,1.3v18.1l0.9,1l4.5,0.2v2.8H509z"
		/>
	<path class="st1" d="M535.6,217.2v-2.8l3.2-0.2l0.9-1v-21.8h-4.3v-2.5l9.1-3h3v3.7c2.4-1.3,4.5-2.3,6.2-2.9
		c1.7-0.6,3.3-0.9,4.6-0.9c2.9,0,5,0.9,6.4,2.6c1.4,1.7,2.1,4.4,2.1,7.9v16.9l0.8,1l3.3,0.2v2.8h-15.4v-2.8l2.7-0.2l0.9-1V198
		c0-2.3-0.5-4.1-1.4-5.2c-0.9-1.1-2.3-1.6-4.3-1.6c-0.8,0-1.6,0.1-2.6,0.3c-1,0.2-2.1,0.5-3.3,0.8v20.8l0.9,1l2.8,0.2v2.8H535.6z"/>
	<path class="st1" d="M602.9,209.3v4.7c-2.2,1.2-4.3,2.2-6.5,2.8c-2.2,0.6-4.4,0.9-6.6,0.9c-4.7,0-8.5-1.4-11.3-4.3
		c-2.8-2.9-4.3-6.7-4.3-11.5c0-4.8,1.5-8.7,4.4-11.7c2.9-3,6.6-4.5,11.2-4.5c4.1,0,7.4,1.2,9.7,3.7c2.3,2.5,3.4,6,3.4,10.5v1.2
		h-20.6v0.2c0,3.6,0.9,6.4,2.7,8.5c1.8,2.1,4.3,3.1,7.5,3.1c1.7,0,3.4-0.3,5.1-0.9C599.2,211.4,601,210.5,602.9,209.3z M594.6,197.7
		v-0.7c0-2.6-0.5-4.5-1.4-5.9c-0.9-1.4-2.3-2-4.1-2c-1.9,0-3.5,0.8-4.6,2.3c-1.2,1.5-1.8,3.6-1.9,6.3H594.6z"/>
	<path class="st1" d="M604.7,186.5h16v2.7l-3.2,0.4l-0.6,0.9l6.8,17.8l6.9-17.8l-0.6-1l-3.3-0.4v-2.7h12.1v2.7l-3.4,0.6l-12.2,29.6
		c-1.5,3.6-3.3,6.5-5.4,8.5c-2.1,2.1-4.2,3.1-6.3,3.1c-1.5,0-2.8-0.5-3.8-1.4c-1.1-0.9-1.6-2-1.6-3.3c0-0.9,0.3-1.7,0.8-2.5
		c0.6-0.8,1.4-1.4,2.4-2l5.5,3.8c0.9-0.7,1.7-1.7,2.5-3c0.8-1.3,1.6-2.9,2.4-4.7l-11.2-28.1l-3.8-0.6V186.5z"/>
	<path class="st1" d="M662.3,187.2v8.4h-3.8l-0.6-4.7l-0.8-0.7c-0.7-0.3-1.4-0.6-2.1-0.7c-0.7-0.2-1.4-0.2-2.1-0.2
		c-1.5,0-2.7,0.3-3.5,1c-0.8,0.7-1.3,1.6-1.3,2.8c0,1,0.3,1.8,1,2.6c0.7,0.7,2.3,1.7,4.9,3l0.1,0.1c6.1,2.9,9.1,5.9,9.1,8.9
		c0,3.2-1.1,5.8-3.4,7.6c-2.3,1.9-5.4,2.8-9.4,2.8c-1.6,0-3.2-0.1-4.9-0.4c-1.7-0.3-3.6-0.7-5.5-1.2v-9.3h3.8l0.7,5.4l0.6,0.7
		c0.8,0.4,1.7,0.8,2.6,1c0.9,0.2,1.8,0.3,2.7,0.3c1.7,0,3-0.4,3.9-1.2c1-0.8,1.4-1.9,1.4-3.3c0-1.8-1.8-3.5-5.5-5.1
		c-1.2-0.6-2.2-1-2.9-1.4c-2.6-1.3-4.4-2.6-5.5-3.8c-1.1-1.3-1.6-2.8-1.6-4.5c0-2.8,1.1-5.1,3.4-6.8c2.2-1.7,5.3-2.6,9-2.6
		c1.6,0,3.2,0.1,4.8,0.4C659.1,186.3,660.7,186.7,662.3,187.2z"/>
	<path class="st1" d="M705.5,213.6c-2.1,1.5-4.1,2.5-5.8,3.2c-1.7,0.7-3.4,1-5,1c-2.4,0-4.4-0.8-5.9-2.3c-1.5-1.5-2.3-3.5-2.3-5.9
		c0-3,1.1-5.2,3.4-6.8c2.3-1.6,7.5-3.3,15.8-5.2v-1.9c0-2.3-0.5-3.9-1.4-5c-1-1-2.5-1.6-4.6-1.6c-0.5,0-0.9,0-1.4,0.1
		c-0.5,0.1-1,0.2-1.6,0.3v5.9h-5.8c-1,0-1.7-0.2-2.2-0.6c-0.5-0.4-0.7-1-0.7-1.8c0-2,1.3-3.7,4-5.1c2.6-1.5,5.9-2.2,9.8-2.2
		c4.3,0,7.4,0.8,9.1,2.5c1.8,1.7,2.6,4.6,2.6,8.7v16.3l0.8,0.9l3.4,0.3v2.8h-11.2L705.5,213.6z M705.5,211v-10.3
		c-4.1,0.9-7,1.9-8.5,3c-1.5,1.1-2.3,2.6-2.3,4.4c0,1.5,0.4,2.6,1.3,3.5c0.8,0.9,2,1.3,3.4,1.3c0.8,0,1.7-0.2,2.7-0.5
		C703.2,212.1,704.3,211.6,705.5,211z"/>
	<path class="st1" d="M723.5,191.1h-4.1v-2.4l4.6-2.6l3.3-6.6h4v7.8h9.3v3.8h-9.3v15.7c0,2.4,0.4,4,1.1,4.8c0.8,0.9,2.1,1.3,4.1,1.3
		c0.8,0,1.5,0,2.2-0.1c0.7-0.1,1.3-0.2,1.9-0.3v3c-1.8,0.7-3.5,1.2-5.2,1.5c-1.6,0.3-3.1,0.5-4.5,0.5c-1.1,0-2.1-0.1-2.9-0.3
		c-0.9-0.2-1.6-0.6-2.3-1c-0.8-0.6-1.4-1.2-1.8-2.1c-0.3-0.8-0.5-2.4-0.5-4.6V191.1z"/>
	<path class="st1" d="M760.8,217.2v-3.1l3.8-0.3l1.1-1v-33.6l-0.9-0.9l-4-0.3v-3.1H779v3.1l-3.8,0.3l-1,0.9v34.4h12.1l0.8-1l1-7.7
		h4.7v12.3H760.8z"/>
	<path class="st1" d="M816.2,213.6c-2.1,1.5-4.1,2.5-5.8,3.2c-1.7,0.7-3.4,1-5,1c-2.4,0-4.4-0.8-5.9-2.3c-1.5-1.5-2.3-3.5-2.3-5.9
		c0-3,1.1-5.2,3.4-6.8c2.3-1.6,7.5-3.3,15.8-5.2v-1.9c0-2.3-0.5-3.9-1.4-5c-1-1-2.5-1.6-4.6-1.6c-0.5,0-0.9,0-1.4,0.1
		c-0.5,0.1-1,0.2-1.6,0.3v5.9h-5.8c-1,0-1.7-0.2-2.2-0.6c-0.5-0.4-0.7-1-0.7-1.8c0-2,1.3-3.7,4-5.1c2.6-1.5,5.9-2.2,9.8-2.2
		c4.3,0,7.4,0.8,9.1,2.5c1.8,1.7,2.6,4.6,2.6,8.7v16.3l0.8,0.9l3.4,0.3v2.8H817L816.2,213.6z M816.2,211v-10.3c-4.1,0.9-7,1.9-8.5,3
		c-1.5,1.1-2.3,2.6-2.3,4.4c0,1.5,0.4,2.6,1.3,3.5c0.8,0.9,2,1.3,3.4,1.3c0.8,0,1.7-0.2,2.7-0.5C813.8,212.1,814.9,211.6,816.2,211z
		"/>
	<path class="st1" d="M828.8,186.5h15.6v2.9l-3.1,0.4l-0.7,0.9l5.1,18.2l7.4-22.4h6.3l6.9,22.4l5.5-18.2l-0.5-0.9l-3.3-0.4v-2.9H880
		v2.9l-3.5,0.4l-8.6,27.4h-6.4l-7-22.6l-7.5,22.6h-6.3l-8.1-27.4l-3.8-0.4V186.5z"/>
</g>
<rect x="897.5" y="199.7" class="st1" width="60" height="2.9"/>
<rect x="307.1" y="199.7" class="st1" width="60" height="2.9"/>
<g>
	<path class="st1" d="M360.8,47.9l-2.6-2.4l-11.8-0.8v-8.2h49.4v8.2l-10.3,0.8l-2.6,2.4v57.2c0,16-3.1,27.6-9.4,35
		c-6.3,7.4-16.1,11.1-29.6,11.1c-3.9,0-7.8-0.3-11.8-1c-4-0.7-8-1.7-12.1-3.1v-30.2h12.2l3.9,22.1l2.4,2.2c0.3,0,0.7,0,1.4,0.1
		c0.6,0.1,1.1,0.1,1.4,0.1c7.1,0,12.2-2.7,15.2-8.2c3-5.4,4.6-14.8,4.6-28V47.9z"/>
	<path class="st1" d="M423.4,65.3h8v52.1c0,6.7,1.2,11.5,3.7,14.4c2.5,2.9,6.6,4.4,12.3,4.4c1.9,0,4-0.2,6.4-0.6
		c2.3-0.4,5-1.1,8.1-2V79.9H451v-6.7l23.9-7.9h7.7v73.1l2.3,2.5l8.8,0.7v7.5h-31.7v-9.3c-5.9,3.8-11,6.6-15.5,8.2
		c-4.5,1.7-8.7,2.5-12.8,2.5c-7.8,0-13.5-2.3-17.3-7.1c-3.8-4.7-5.7-11.9-5.7-21.6v-42h-10.9v-6.7L423.4,65.3z"/>
	<path class="st1" d="M501.5,149.1v-7.5l8.9-0.7l2.4-2.5v-58h-12.1v-6.7l24.7-7.9h8.1L532.7,83c2.9-3.1,6-6.1,9.3-8.9
		c3.3-2.9,6.7-5.6,10.3-8.2c0.9-0.1,1.7-0.2,2.3-0.3c0.6,0,1.1-0.1,1.5-0.1c1.8,0,3.6,0.2,5.5,0.7c1.8,0.5,3.7,1.2,5.6,2.2L565,91.6
		h-8.8c-1.3-2.1-2.8-3.6-4.6-4.6c-1.8-1-3.9-1.5-6.4-1.5c-1.4,0-3.1,0.4-5.1,1.2c-2,0.8-4.3,2-6.8,3.5v48.2l2.5,2.5l12,0.7v7.5
		H501.5z"/>
	<path class="st1" d="M632.7,39.7h-12.3v-6.7l25-7.9h7.8v113.3l2.3,2.7l8.6,0.7v7.4h-31.4v-9.4c-5.1,3.8-9.8,6.5-14.1,8.3
		c-4.3,1.7-8.4,2.6-12.5,2.6c-9.5,0-17.3-3.8-23.4-11.3c-6.1-7.5-9.1-17.2-9.1-29.1c0-13.4,4-24.2,12-32.6
		c8-8.3,18.4-12.5,31.3-12.5c2.4,0,4.9,0.1,7.5,0.4c2.6,0.3,5.4,0.7,8.3,1.2V39.7z M632.7,133.1V77.1c-2.5-0.8-4.8-1.4-6.8-1.8
		c-2-0.4-3.9-0.6-5.7-0.6c-7.3,0-13.2,2.9-17.6,8.7c-4.4,5.8-6.6,13.6-6.6,23.4c0,9.3,2,16.6,6,21.8c4,5.2,9.5,7.9,16.6,7.9
		c1.9,0,3.9-0.3,6.3-0.8C627.2,135,629.8,134.2,632.7,133.1z"/>
	<path class="st1" d="M725,139.5c-5.7,3.9-10.9,6.7-15.5,8.4c-4.6,1.7-9.1,2.6-13.4,2.6c-6.5,0-11.7-2-15.8-6.1
		c-4.1-4.1-6.2-9.3-6.2-15.7c0-7.9,3-13.9,9-18.2c6-4.3,20-8.9,42.1-13.9v-5c0-6.1-1.3-10.5-3.9-13.3c-2.6-2.8-6.6-4.2-12.1-4.2
		c-1.2,0-2.5,0.1-3.8,0.2c-1.3,0.2-2.7,0.4-4.3,0.7V91h-15.5c-2.7,0-4.6-0.5-5.9-1.5c-1.2-1-1.8-2.5-1.8-4.7
		c0-5.2,3.5-9.8,10.6-13.7c7.1-3.9,15.7-5.8,26-5.8c11.5,0,19.7,2.2,24.4,6.6c4.7,4.4,7.1,12.1,7.1,23.1v43.5l2.2,2.4l8.9,0.8v7.4
		h-29.9L725,139.5z M725,132.6v-27.4c-11,2.5-18.6,5.1-22.6,8c-4,2.9-6.1,6.8-6.1,11.8c0,3.9,1.1,7,3.4,9.2c2.2,2.3,5.3,3.4,9.1,3.4
		c2.1,0,4.6-0.4,7.3-1.3C718.7,135.6,721.7,134.3,725,132.6z"/>
	<path class="st1" d="M764,149.1v-7.5l8.6-0.7l2.4-2.5v-58h-11.5v-6.7l24.2-7.9h8.1v9.9c6.4-3.6,11.9-6.1,16.6-7.8
		c4.6-1.6,8.7-2.5,12.1-2.5c7.7,0,13.4,2.3,17.1,6.9c3.8,4.6,5.7,11.6,5.7,21v45l2.2,2.5l8.9,0.7v7.5h-41.1v-7.5l7.2-0.7l2.3-2.5
		V98.2c0-6.2-1.2-10.8-3.6-13.7c-2.4-2.9-6.2-4.4-11.5-4.4c-2,0-4.4,0.2-7,0.7c-2.7,0.5-5.6,1.2-8.9,2.1v55.4l2.3,2.5l7.4,0.7v7.5
		H764z"/>
	<path class="st1" d="M918,139.5c-5.7,3.9-10.9,6.7-15.5,8.4c-4.6,1.7-9.1,2.6-13.4,2.6c-6.5,0-11.7-2-15.8-6.1
		c-4.1-4.1-6.2-9.3-6.2-15.7c0-7.9,3-13.9,9-18.2c6-4.3,20-8.9,42.1-13.9v-5c0-6.1-1.3-10.5-3.9-13.3c-2.6-2.8-6.6-4.2-12.1-4.2
		c-1.2,0-2.5,0.1-3.8,0.2c-1.3,0.2-2.7,0.4-4.3,0.7V91h-15.5c-2.7,0-4.6-0.5-5.9-1.5c-1.2-1-1.8-2.5-1.8-4.7
		c0-5.2,3.5-9.8,10.6-13.7c7.1-3.9,15.7-5.8,26-5.8c11.5,0,19.7,2.2,24.4,6.6c4.7,4.4,7.1,12.1,7.1,23.1v43.5l2.2,2.4l8.9,0.8v7.4
		h-29.9L918,139.5z M918,132.6v-27.4c-11,2.5-18.6,5.1-22.6,8c-4,2.9-6.1,6.8-6.1,11.8c0,3.9,1.1,7,3.4,9.2c2.2,2.3,5.3,3.4,9.1,3.4
		c2.1,0,4.6-0.4,7.3-1.3C911.7,135.6,914.7,134.3,918,132.6z"/>
</g>
</svg>
