<?xml version="1.0" encoding="iso-8859-1"?>
<!-- Generator: Adobe Illustrator 19.2.1, SVG Export Plug-In . SVG Version: 6.00 Build 0)  -->
<svg version="1.1" id="Layer_1" xmlns="http://www.w3.org/2000/svg" xmlns:xlink="http://www.w3.org/1999/xlink" x="0px" y="0px"
	 viewBox="0 0 200 150" style="enable-background:new 0 0 200 150;" xml:space="preserve">
<g>
	<path style="fill:#FFFFFF;" d="M169.891,5.33H29.802C17.781,5.33,8,14.724,8,26.269v97.643c0,11.546,9.781,20.938,21.802,20.938
		h140.089c12.023,0,21.804-9.392,21.804-20.938V26.269C191.695,14.724,181.914,5.33,169.891,5.33L169.891,5.33z M169.891,126.367
		H29.802c-1.765,0-3.316-1.148-3.316-2.455V39.181l63.358,53.491c1.3,1.096,2.95,1.699,4.652,1.699l10.702,0.002
		c1.699,0,3.352-0.606,4.652-1.702l63.361-53.492v84.735C173.208,125.219,171.659,126.367,169.891,126.367L169.891,126.367z
		 M99.848,76.017L38.224,23.816h123.247L99.848,76.017z M99.848,76.017"/>
</g>
</svg>
