<?xml version="1.0" encoding="utf-8"?>
<!-- Generator: Adobe Illustrator 19.2.1, SVG Export Plug-In . SVG Version: 6.00 Build 0)  -->
<svg version="1.1" id="Layer_1" xmlns="http://www.w3.org/2000/svg" xmlns:xlink="http://www.w3.org/1999/xlink" x="0px" y="0px"
	 viewBox="0 0 170.3 52.8" style="enable-background:new 0 0 170.3 52.8;" xml:space="preserve">
<style type="text/css">
	.st0{clip-path:url(#SVGID_2_);}
	.st1{opacity:0.5;}
	.st2{fill:#FFFFFF;}
</style>
<g>
	<g>
		<defs>
			<rect id="SVGID_1_" x="6.5" y="12.4" width="36.7" height="36.7"/>
		</defs>
		<clipPath id="SVGID_2_">
			<use xlink:href="#SVGID_1_"  style="overflow:visible;"/>
		</clipPath>
		<g class="st0">
			<g class="st1">
				<path class="st2" d="M27.2,34.7c-1.1,0-2-0.2-2.9-0.6c-0.9-0.4-1.7-1-2.5-1.8c-0.7-0.8-1.3-1.6-1.7-2.5
					c-0.4-0.9-0.6-1.9-0.6-2.9s0.2-2,0.6-2.9s1-1.8,1.7-2.5c0.8-0.8,1.6-1.4,2.5-1.8s1.9-0.6,2.9-0.6c1.1,0,2,0.2,2.9,0.6
					s1.7,1,2.5,1.8c0.7,0.8,1.3,1.6,1.7,2.5s0.6,1.9,0.6,2.9s-0.2,2-0.6,2.9c-0.4,0.9-1,1.8-1.7,2.5c-0.8,0.8-1.6,1.4-2.5,1.8
					C29.3,34.5,28.3,34.7,27.2,34.7z M27.2,19.2c-1,0-2,0.2-2.8,0.6c-0.9,0.4-1.7,1-2.5,1.7c-0.7,0.7-1.3,1.6-1.6,2.5
					c-0.4,0.9-0.6,1.8-0.6,2.8s0.2,1.9,0.6,2.8s0.9,1.7,1.6,2.5c0.8,0.8,1.6,1.4,2.4,1.7c0.9,0.4,1.8,0.6,2.8,0.6s2-0.2,2.9-0.6
					c0.9-0.4,1.7-1,2.4-1.7s1.3-1.6,1.7-2.5s0.6-1.9,0.6-2.9s-0.2-1.9-0.6-2.8c-0.4-0.9-0.9-1.7-1.7-2.5S30.8,20,30,19.7
					C29.2,19.4,28.2,19.2,27.2,19.2z"/>
			</g>
			<g>
				<path class="st2" d="M34.4,23.9c-0.4-0.9-1-1.8-1.7-2.6c-0.8-0.8-1.6-1.4-2.5-1.8s-1.9-0.6-3-0.6l0,0v0.4l0,0c1,0,2,0.2,2.8,0.6
					s1.7,1,2.4,1.7s1.3,1.6,1.6,2.5c0.4,0.9,0.6,1.8,0.6,2.8s-0.2,1.9-0.6,2.8c-0.4,0.9-0.9,1.7-1.6,2.5c-0.7,0.8-1.5,1.3-2.4,1.7
					s-1.8,0.6-2.8,0.6l0,0v0.4l0,0c1.1,0,2.1-0.2,3-0.6c0.9-0.4,1.8-1,2.5-1.8s1.3-1.6,1.7-2.6c0.4-0.9,0.6-1.9,0.6-3
					C35,25.9,34.8,24.9,34.4,23.9z"/>
			</g>
			<g class="st1">
				<path class="st2" d="M27.3,21.3c0.7,0,1.4,0.1,2.1,0.4c0.6,0.3,1.2,0.7,1.8,1.3c0.5,0.5,0.9,1.1,1.2,1.8
					c0.3,0.7,0.4,1.4,0.4,2.1s-0.1,1.4-0.4,2.1c-0.3,0.7-0.7,1.3-1.2,1.8c-0.6,0.6-1.2,1-1.8,1.3c-0.6,0.3-1.3,0.4-2.1,0.4
					c-0.7,0-1.4-0.1-2.1-0.4c-0.6-0.3-1.2-0.7-1.8-1.3c-0.5-0.5-0.9-1.2-1.2-1.8c-0.3-0.7-0.4-1.3-0.4-2s0.1-1.4,0.4-2.1
					s0.7-1.3,1.2-1.8c0.5-0.6,1.1-1,1.8-1.3C25.9,21.5,26.6,21.3,27.3,21.3z M27.3,32.3c0.7,0,1.4-0.1,2-0.4
					c0.6-0.3,1.2-0.7,1.7-1.2s0.9-1.1,1.2-1.8c0.3-0.6,0.4-1.3,0.4-2s-0.1-1.4-0.4-2c-0.3-0.6-0.7-1.2-1.2-1.8
					c-0.5-0.5-1.1-1-1.7-1.2c-0.6-0.3-1.3-0.4-2-0.4s-1.4,0.1-2,0.4s-1.2,0.7-1.7,1.2s-0.9,1.1-1.2,1.8c-0.3,0.6-0.4,1.3-0.4,2
					s0.1,1.4,0.4,2s0.7,1.2,1.2,1.8c0.5,0.6,1.1,1,1.7,1.2C25.9,32.1,26.6,32.3,27.3,32.3z"/>
			</g>
			<g>
				<path class="st2" d="M22.2,28.9c0.3,0.7,0.7,1.3,1.2,1.8c0.6,0.6,1.2,1,1.8,1.3c0.6,0.3,1.3,0.4,2.1,0.4l0,0v-0.3l0,0
					c-0.7,0-1.4-0.1-2-0.4s-1.2-0.7-1.7-1.2s-0.9-1.1-1.2-1.7c-0.3-0.6-0.4-1.3-0.4-2s0.1-1.4,0.4-2s0.7-1.2,1.2-1.7
					s1.1-0.9,1.7-1.2c0.6-0.3,1.3-0.4,2-0.4l0,0v-0.3l0,0c-0.8,0-1.5,0.1-2.1,0.4s-1.2,0.7-1.8,1.3c-0.5,0.5-0.9,1.2-1.2,1.8
					c-0.3,0.7-0.4,1.4-0.4,2.1C21.8,27.6,21.9,28.3,22.2,28.9z"/>
			</g>
			<g class="st1">
				<path class="st2" d="M37.7,27c0,1.4-0.3,2.7-0.8,3.9s-1.3,2.3-2.4,3.3c-1,1-2.2,1.7-3.4,2.3c-1.2,0.5-2.6,0.8-3.9,0.8
					s-2.6-0.3-3.9-0.8c-1.2-0.5-2.4-1.3-3.4-2.3c-1.1-1-1.9-2.2-2.4-3.4c-0.5-1.2-0.8-2.5-0.8-3.9s0.3-2.7,0.8-3.9
					c0.5-1.2,1.3-2.3,2.4-3.4c1-1,2.2-1.8,3.4-2.3c1.2-0.5,2.5-0.8,3.9-0.8s2.7,0.3,3.9,0.8s2.4,1.3,3.4,2.3c1.1,1,1.9,2.1,2.4,3.3
					C37.5,24.2,37.7,25.5,37.7,27z M17.1,27c0,1.4,0.3,2.6,0.8,3.8c0.5,1.1,1.3,2.2,2.3,3.3c1,1,2.1,1.7,3.3,2.2
					c1.2,0.5,2.5,0.8,3.8,0.8s2.6-0.3,3.8-0.8s2.3-1.2,3.3-2.2s1.8-2.1,2.3-3.3c0.5-1.1,0.8-2.4,0.8-3.8s-0.3-2.7-0.8-3.8
					C36.2,22,35.4,21,34.4,20s-2.1-1.7-3.3-2.2S28.6,17,27.3,17s-2.6,0.3-3.8,0.8c-1.2,0.5-2.3,1.3-3.3,2.2c-1,1-1.8,2.1-2.3,3.3
					C17.4,24.3,17.1,25.6,17.1,27z"/>
			</g>
			<g>
				<path class="st2" d="M23.4,17.3c-1.2,0.5-2.4,1.3-3.4,2.3c-1.1,1.1-1.9,2.2-2.4,3.4c-0.5,1.2-0.8,2.5-0.8,4l0,0h0.5l0,0
					c0-1.3,0.3-2.6,0.7-3.7c0.5-1.1,1.3-2.2,2.3-3.2s2.1-1.7,3.3-2.2c1.2-0.5,2.4-0.8,3.7-0.8c1.3,0,2.6,0.3,3.8,0.8
					s2.3,1.2,3.3,2.2s1.8,2.1,2.3,3.2s0.7,2.4,0.7,3.8l0,0h0.5l0,0c0-1.4-0.3-2.8-0.8-4s-1.3-2.3-2.4-3.4c-1-1-2.2-1.8-3.4-2.3
					c-1.3-0.5-2.6-0.8-4-0.8C25.9,16.5,24.6,16.8,23.4,17.3z"/>
			</g>
			<g class="st1">
				<path class="st2" d="M27.2,40.3c-1.8,0-3.5-0.3-5-1s-3-1.7-4.3-3s-2.2-2.8-2.9-4.4s-1-3.3-1-5s0.3-3.4,1-5s1.6-3,2.9-4.4
					s2.8-2.4,4.3-3.1c1.5-0.7,3.2-1,5-1s3.5,0.3,5,1s3,1.7,4.3,3.1c1.3,1.3,2.3,2.8,2.9,4.4c0.7,1.6,1,3.2,1,4.9c0,1.7-0.3,3.4-1,5
					c-0.7,1.6-1.6,3.1-2.9,4.4c-1.3,1.4-2.7,2.4-4.3,3C30.7,39.9,29,40.3,27.2,40.3z M27.2,13.8c-1.7,0-3.4,0.3-4.8,1
					s-2.9,1.7-4.2,3C17,19.1,16,20.5,15.4,22c-0.6,1.5-1,3.2-1,4.8c0,1.7,0.3,3.3,1,4.9c0.6,1.6,1.6,3,2.8,4.3
					c1.3,1.3,2.7,2.3,4.2,3c1.5,0.6,3.1,1,4.9,1s3.4-0.3,4.9-1c1.5-0.6,2.9-1.6,4.2-3c1.2-1.3,2.2-2.7,2.8-4.3c0.6-1.5,1-3.2,1-4.9
					c0-1.7-0.3-3.3-1-4.8c-0.7-1.5-1.6-3-2.8-4.3c-1.3-1.3-2.7-2.3-4.2-3S28.9,13.8,27.2,13.8z"/>
			</g>
			<g>
				<path class="st2" d="M39.6,21.8c-0.7-1.6-1.7-3.1-3-4.4c-1.4-1.4-2.8-2.4-4.4-3.1c-1.5-0.7-3.2-1-5.1-1l0,0V14l0,0
					c1.7,0,3.3,0.3,4.8,1c1.5,0.6,2.8,1.6,4.1,3c1.2,1.3,2.2,2.7,2.8,4.2s1,3.1,1,4.8c0,1.7-0.3,3.3-1,4.8c-0.6,1.5-1.6,2.9-2.8,4.2
					c-1.3,1.3-2.6,2.3-4.1,2.9c-1.5,0.6-3.1,1-4.8,1l0,0v0.7l0,0c1.8,0,3.6-0.3,5.1-1c1.5-0.7,3-1.7,4.3-3.1c1.3-1.3,2.3-2.8,3-4.4
					c0.7-1.6,1-3.3,1-5.1C40.6,25.1,40.2,23.4,39.6,21.8z"/>
			</g>
			<g class="st1">
				<path class="st2" d="M39.1,15.2c1.6,1.6,2.8,3.3,3.5,5.3c0.7,1.9,1.1,4.1,1.1,6.4c0,2.2-0.5,4.4-1.3,6.4s-2,3.7-3.5,5.3
					c-1.5,1.5-3.3,2.7-5.2,3.5c-2,0.8-4.1,1.2-6.4,1.3c-2.4,0-4.6-0.3-6.5-1.1c-1.9-0.7-3.7-1.9-5.2-3.5c-1.6-1.6-2.8-3.4-3.5-5.3
					C11.4,31.6,11,29.4,11,27c0-2.3,0.5-4.4,1.3-6.4s2-3.7,3.5-5.2s3.3-2.7,5.3-3.5s4.1-1.2,6.4-1.3c2.3,0,4.5,0.3,6.4,1.1
					C35.8,12.4,37.5,13.6,39.1,15.2z M15.9,38.4c1.5,1.5,3.2,2.7,5.1,3.4s4,1.1,6.3,1.1c2.2-0.1,4.3-0.5,6.2-1.3s3.6-1.9,5.1-3.4
					s2.6-3.2,3.4-5.1c0.8-1.9,1.2-4,1.3-6.2c0-2.3-0.3-4.4-1.1-6.3c-0.7-1.9-1.9-3.6-3.4-5.1c-1.6-1.6-3.3-2.7-5.1-3.5
					c-1.9-0.7-4-1.1-6.2-1.1s-4.3,0.4-6.2,1.2c-1.9,0.8-3.7,1.9-5.1,3.4c-1.5,1.5-2.6,3.2-3.4,5.1c-0.8,1.9-1.2,4-1.2,6.2
					c0,2.3,0.3,4.4,1.1,6.3C13.3,35.1,14.4,36.9,15.9,38.4z"/>
			</g>
			<g>
				<path class="st2" d="M12.1,20.5c-0.8,2-1.2,4.2-1.3,6.5c0,2.4,0.4,4.6,1.1,6.5c0.8,1.9,1.9,3.7,3.6,5.3l0,0l0.6-0.6l0,0
					c-1.5-1.5-2.6-3.2-3.4-5c-0.7-1.8-1.1-3.9-1-6.2c0-2.2,0.5-4.3,1.2-6.2c0.8-1.9,1.9-3.6,3.3-5c1.5-1.5,3.2-2.6,5.1-3.4
					c1.9-0.8,4-1.2,6.1-1.2c2.2,0,4.3,0.3,6.2,1c1.8,0.7,3.5,1.9,5.1,3.4l0,0l0.6-0.6l0,0c-1.6-1.6-3.4-2.8-5.4-3.6
					c-1.9-0.8-4.1-1.1-6.5-1.1c-2.3,0-4.5,0.5-6.5,1.3s-3.8,2-5.3,3.6C14.1,16.7,12.9,18.5,12.1,20.5z"/>
			</g>
			<g class="st1">
				<path class="st2" d="M28,30.4c-0.5,0.1-0.9,0.1-1.4,0c-0.4-0.1-0.9-0.3-1.3-0.6c-0.4-0.3-0.7-0.6-1-1s-0.4-0.8-0.5-1.3
					s-0.1-0.9,0-1.4s0.3-0.9,0.5-1.3c0.3-0.4,0.6-0.8,1-1c0.4-0.3,0.8-0.4,1.3-0.5s0.9-0.1,1.4,0c0.4,0.1,0.9,0.3,1.3,0.6
					c0.4,0.3,0.8,0.6,1,1c0.3,0.4,0.4,0.8,0.5,1.3s0.1,0.9,0,1.4s-0.3,0.9-0.5,1.3c-0.3,0.4-0.6,0.8-1,1
					C28.9,30.2,28.5,30.3,28,30.4z M26.5,23.4c-0.5,0.1-0.9,0.3-1.2,0.5c-0.4,0.3-0.7,0.6-1,1s-0.4,0.8-0.5,1.3
					c-0.1,0.4-0.1,0.9,0,1.3s0.3,0.9,0.5,1.2c0.3,0.4,0.6,0.7,1,1s0.8,0.5,1.3,0.6c0.4,0.1,0.9,0.1,1.3,0c0.5-0.1,0.9-0.3,1.3-0.5
					c0.4-0.3,0.7-0.6,0.9-1c0.3-0.4,0.4-0.8,0.5-1.3c0.1-0.4,0.1-0.9,0-1.4c-0.1-0.4-0.3-0.9-0.5-1.2c-0.3-0.4-0.6-0.7-1-1
					s-0.9-0.5-1.3-0.6C27.5,23.3,27,23.3,26.5,23.4z"/>
			</g>
			<g>
				<path class="st2" d="M30.3,24.9c-0.3-0.4-0.6-0.7-1-1s-0.9-0.5-1.3-0.6s-0.9-0.1-1.4,0l0,0v0.2l0,0c0.5-0.1,0.9-0.1,1.3,0
					s0.8,0.3,1.3,0.6c0.4,0.3,0.7,0.6,1,1s0.4,0.8,0.5,1.2c0.1,0.4,0.1,0.9,0,1.3s-0.3,0.9-0.5,1.3c-0.3,0.4-0.6,0.8-0.9,1
					c-0.4,0.2-0.8,0.4-1.2,0.5l0,0v0.2l0,0c0.5-0.1,0.9-0.3,1.3-0.5c0.4-0.3,0.7-0.6,1-1.1c0.3-0.4,0.5-0.9,0.5-1.3
					c0.1-0.5,0.1-0.9,0-1.4C30.7,25.7,30.5,25.3,30.3,24.9z"/>
			</g>
			<g class="st1">
				<path class="st2" d="M13.7,42c-2.1-1.8-3.6-3.9-4.7-6.1c-1-2.3-1.7-4.9-1.8-7.8c-0.1-2.7,0.2-5.4,1.1-7.9
					c0.8-2.5,2.2-4.7,3.9-6.7S16,10,18.3,8.8C20.6,7.7,23.2,7,26,6.7c2.9-0.2,5.6,0.1,8,0.8c2.4,0.8,4.6,2.1,6.7,3.8
					c2.1,1.8,3.6,3.9,4.7,6.2c1.1,2.3,1.7,4.9,1.8,7.8c0.1,2.8-0.2,5.4-1,7.9s-2.1,4.7-3.8,6.7s-3.8,3.6-6.2,4.7
					c-2.3,1.1-4.9,1.8-7.7,2s-5.5,0-7.9-0.8C18.1,45.2,15.8,43.8,13.7,42z M40.2,11.9c-2-1.7-4.2-3-6.5-3.7s-4.9-1-7.8-0.8
					c-2.7,0.2-5.2,0.9-7.5,2s-4.3,2.6-5.9,4.5c-1.7,1.9-3,4.1-3.8,6.5s-1.2,5-1.1,7.7c0.2,2.8,0.8,5.4,1.8,7.6c1,2.2,2.6,4.2,4.6,6
					s4.2,3.1,6.6,3.8c2.3,0.8,4.9,1,7.7,0.8c2.7-0.2,5.2-0.9,7.5-2s4.3-2.7,6-4.6c1.7-1.9,2.9-4.1,3.7-6.5s1.1-5,1-7.7
					c-0.2-2.8-0.8-5.4-1.8-7.6S42.2,13.6,40.2,11.9z"/>
			</g>
			<g>
				<path class="st2" d="M46.3,33.4c0.8-2.5,1.2-5.2,1.1-8c-0.2-2.9-0.8-5.6-1.9-7.9c-1.1-2.3-2.7-4.4-4.8-6.2c0,0,0,0-0.1,0L40,12
					c0,0,0,0,0.1,0c2,1.7,3.5,3.7,4.5,5.9s1.6,4.7,1.8,7.5c0.1,2.7-0.2,5.2-1,7.6s-2,4.5-3.7,6.4c-1.7,2-3.7,3.5-6,4.6
					s-4.8,1.8-7.4,2c-2.7,0.2-5.3,0-7.6-0.8c-2.3-0.7-4.5-2-6.5-3.8c0,0,0,0-0.1-0.1l-0.7,0.8c0,0,0,0,0.1,0.1
					c2.1,1.8,4.4,3.2,6.8,4s5.1,1.1,8,0.8c2.8-0.2,5.4-0.9,7.8-2.1c2.4-1.2,4.5-2.8,6.3-4.8C44.2,38.2,45.5,35.9,46.3,33.4z"/>
			</g>
			<g class="st1">
				<path class="st2" d="M11.2,44.8c-2.4-2.1-4.3-4.6-5.6-7.3s-2-5.8-2.2-9.2C3.3,25.1,3.8,22,4.8,19c1-2.9,2.5-5.6,4.6-7.9
					c2-2.3,4.5-4.2,7.2-5.5c2.8-1.3,5.8-2.2,9.1-2.5c3.4-0.3,6.6,0.1,9.5,1C38,5,40.6,6.5,43.1,8.7c2.4,2.1,4.3,4.6,5.6,7.3
					s2,5.8,2.2,9.3c0.2,3.3-0.3,6.4-1.2,9.4c-1,2.9-2.5,5.6-4.5,7.9c-2.1,2.4-4.5,4.2-7.3,5.6c-2.8,1.4-5.8,2.2-9.1,2.4
					c-3.4,0.3-6.5,0-9.4-1C16.4,48.6,13.7,47,11.2,44.8z M42.7,9.1c-2.4-2.1-5-3.5-7.7-4.4c-2.8-0.9-5.9-1.2-9.2-0.9
					c-3.2,0.3-6.2,1.1-8.9,2.4s-5.1,3.1-7,5.4c-2,2.3-3.5,4.9-4.5,7.7c-1,2.9-1.4,5.9-1.3,9.1c0.2,3.3,0.9,6.3,2.1,9
					c1.2,2.6,3.1,5,5.4,7.1c2.4,2.1,5,3.6,7.8,4.5s5.8,1.2,9.1,0.9c3.2-0.2,6.2-1,8.9-2.4c2.7-1.3,5.1-3.1,7.1-5.4
					c2-2.2,3.4-4.8,4.4-7.7s1.4-5.9,1.2-9.1c-0.2-3.4-0.9-6.4-2.1-9C46.8,13.6,45,11.2,42.7,9.1z"/>
			</g>
			<g class="st1">
				<path class="st2" d="M8.6,47.8c-2.8-2.5-5-5.4-6.5-8.5s-2.3-6.7-2.5-10.7c-0.2-3.8,0.3-7.5,1.5-10.9s3-6.5,5.4-9.3
					c2.4-2.7,5.2-4.9,8.4-6.4c3.2-1.6,6.8-2.5,10.6-2.9c4-0.3,7.7,0.1,11,1.1s6.4,2.8,9.2,5.3s5,5.4,6.5,8.5s2.3,6.8,2.5,10.8
					c0.2,3.8-0.3,7.5-1.5,10.9c-1.1,3.4-2.9,6.5-5.3,9.2c-2.4,2.7-5.3,4.9-8.5,6.5s-6.8,2.5-10.6,2.8c-3.9,0.3-7.6-0.1-10.9-1.1
					C14.6,52.2,11.4,50.4,8.6,47.8z M45.2,6.2c-2.7-2.4-5.8-4.2-9-5.2s-6.8-1.4-10.8-1.1c-3.7,0.3-7.2,1.3-10.3,2.8S9.3,6.3,6.9,9
					c-2.3,2.7-4.1,5.7-5.2,9s-1.6,6.9-1.5,10.6C0.5,32.5,1.3,36,2.7,39c1.4,3.1,3.6,5.8,6.3,8.3c2.8,2.4,5.8,4.2,9.1,5.3
					c3.2,1,6.8,1.4,10.7,1.1c3.7-0.3,7.2-1.2,10.4-2.8c3.2-1.5,6-3.7,8.3-6.3s4-5.6,5.1-8.9c1.1-3.3,1.6-6.9,1.4-10.7
					c-0.2-3.9-1.1-7.5-2.5-10.5S48,8.6,45.2,6.2z"/>
			</g>
		</g>
	</g>
</g>
<g>
	<g>
		<path class="st2" d="M58.1,23.9c0-1.5,0.3-2.9,0.9-4.3c0.6-1.4,1.4-2.6,2.5-3.8c1.2-1.2,2.4-2.1,3.8-2.7c1.3-0.6,2.8-0.9,4.4-0.9
			s3.1,0.3,4.4,0.9c1.3,0.6,2.6,1.5,3.8,2.7c1.1,1.2,2,2.4,2.6,3.8s0.9,2.8,0.9,4.3s-0.3,3-0.9,4.4s-1.4,2.7-2.6,3.8
			c-1.2,1.2-2.4,2.1-3.7,2.6c-1.3,0.6-2.8,0.9-4.4,0.9s-3.1-0.3-4.4-0.9c-1.3-0.6-2.6-1.5-3.8-2.6c-1.1-1.1-2-2.4-2.5-3.8
			C58.4,26.9,58.1,25.5,58.1,23.9z M64.8,23.9c0,2.9,0,4.8,0.1,5.9c0.1,1.1,0.3,1.9,0.5,2.4c0.4,0.8,0.9,1.4,1.5,1.8
			c0.7,0.4,1.6,0.5,2.7,0.5s2-0.2,2.7-0.5c0.7-0.4,1.2-0.9,1.5-1.8c0.3-0.6,0.4-1.4,0.5-2.6c0.1-1.1,0.2-3.1,0.2-5.8
			s-0.1-4.6-0.2-5.8c-0.1-1.1-0.3-2-0.5-2.6c-0.4-0.8-0.9-1.4-1.5-1.8c-0.7-0.4-1.6-0.5-2.7-0.5s-2,0.2-2.7,0.5
			c-0.7,0.4-1.2,0.9-1.5,1.8c-0.2,0.5-0.4,1.3-0.5,2.4C64.9,19.1,64.8,21.1,64.8,23.9z"/>
		<path class="st2" d="M84.9,34h2.7V13.7h-2.7v-1h11.6c3.2,0,5.5,0.5,7,1.4s2.3,2.4,2.3,4.3c0,2-0.8,3.6-2.4,4.6s-4,1.5-7.1,1.5h-3
			V34h3.2v1.1H84.9V34z M93.3,13.7v9.9h3.1c1.3,0,2.1-0.3,2.5-0.8s0.6-2,0.6-4.3c0-2.1-0.2-3.4-0.6-4c-0.4-0.5-1.3-0.8-2.7-0.8H93.3
			z"/>
		<path class="st2" d="M108.4,35.1V34h2.7V13.7h-2.3v-1h18.7l0.1,5.9h-1.1c-0.8-1.9-1.5-3.2-2.3-3.9s-1.9-1-3.4-1h-3.9V23
			c0.1,0,0.2,0,0.3,0c0.1,0,0.3,0,0.5,0c1.2,0,2.1-0.3,2.8-1c0.6-0.6,1-1.7,1.2-3.1h1.1v9.6h-1.1c-0.1-1.5-0.5-2.7-1.1-3.3
			c-0.6-0.7-1.6-1-3-1h-0.7V34h3.8c1.9,0,3.3-0.5,4.3-1.5s1.9-2.6,2.5-4.9h1.1l-0.2,7.5H108.4z"/>
		<path class="st2" d="M130.9,35.1V34h1.6c0.5,0,0.8-0.1,1.1-0.2c0.3-0.1,0.6-0.5,1-1.1l5.2-7.6l-6.9-11.3h-2v-1h10.9v1h-2.3
			l3.9,6.5l3.8-5.7c0,0,0-0.1,0.1-0.1c0.1-0.1,0.2-0.3,0.2-0.4c0-0.1-0.1-0.3-0.2-0.3c-0.1-0.1-0.3-0.1-0.5-0.1h-2.1v-1h7.6v1h-1.5
			c-0.7,0-1.2,0.1-1.5,0.2c-0.3,0.1-0.6,0.5-0.9,0.9l-4.3,6.2l7.8,12.9h1.8V35h-10.8v-1h2.4l-4.8-7.9l-4.2,6.4
			c-0.1,0.1-0.2,0.3-0.2,0.5c-0.1,0.2-0.1,0.3-0.1,0.4c0,0.2,0.1,0.3,0.2,0.4c0.1,0.1,0.4,0.2,0.6,0.2h1.9v1.1
			C138.7,35.1,130.9,35.1,130.9,35.1z"/>
	</g>
	<g>
		<path class="st2" d="M64.9,45.2c0,0.7-0.1,1.2-0.3,1.7c-0.2,0.5-0.5,0.9-0.9,1.1c-0.4,0.3-0.9,0.4-1.4,0.4s-1-0.1-1.4-0.4
			c-0.4-0.3-0.7-0.6-1-1.1c-0.2-0.5-0.3-1-0.3-1.7v-0.5c0-0.6,0.1-1.2,0.3-1.7s0.5-0.9,1-1.1c0.4-0.3,0.9-0.4,1.4-0.4s1,0.1,1.4,0.4
			c0.4,0.3,0.7,0.6,0.9,1.1c0.2,0.5,0.3,1.1,0.3,1.7V45.2z M64,44.7c0-0.8-0.2-1.4-0.5-1.8c-0.3-0.4-0.8-0.6-1.3-0.6
			c-0.6,0-1,0.2-1.3,0.6c-0.3,0.4-0.5,1-0.5,1.8v0.5c0,0.8,0.2,1.4,0.5,1.8c0.3,0.4,0.8,0.7,1.3,0.7c0.6,0,1-0.2,1.3-0.6
			c0.3-0.4,0.5-1,0.5-1.8V44.7z"/>
		<path class="st2" d="M67.2,45.7v2.6h-0.9v-6.7h2.5c0.7,0,1.3,0.2,1.7,0.6c0.4,0.4,0.6,0.9,0.6,1.5c0,0.7-0.2,1.2-0.6,1.5
			c-0.4,0.4-1,0.5-1.7,0.5C68.8,45.7,67.2,45.7,67.2,45.7z M67.2,45h1.6c0.5,0,0.8-0.1,1.1-0.3c0.3-0.2,0.4-0.5,0.4-1
			c0-0.4-0.1-0.7-0.4-1c-0.3-0.2-0.6-0.4-1-0.4h-1.6L67.2,45L67.2,45z"/>
		<path class="st2" d="M76.1,45.2h-2.9v2.4h3.4v0.7h-4.3v-6.7h4.2v0.7h-3.3v2.2h2.9C76.1,44.5,76.1,45.2,76.1,45.2z"/>
		<path class="st2" d="M80.3,45.6h-1.6v2.7h-0.9v-6.7H80c0.8,0,1.3,0.2,1.7,0.5c0.4,0.3,0.6,0.8,0.6,1.5c0,0.4-0.1,0.8-0.3,1.1
			c-0.2,0.3-0.5,0.5-0.9,0.7l1.6,2.8v0.1h-0.9L80.3,45.6z M78.7,44.9H80c0.4,0,0.8-0.1,1-0.3c0.3-0.2,0.4-0.5,0.4-0.9
			s-0.1-0.7-0.4-1c-0.2-0.2-0.6-0.3-1.1-0.3h-1.4v2.5H78.7z"/>
		<path class="st2" d="M87.4,46.6h-2.8L84,48.3h-0.9l2.6-6.7h0.8l2.6,6.7h-0.9L87.4,46.6z M84.9,45.8h2.3L86,42.7L84.9,45.8z"/>
		<path class="st2" d="M94,42.3h-2.2v6H91v-6h-2.2v-0.7H94V42.3z"/>
		<path class="st2" d="M96,48.3h-0.9v-6.7H96V48.3z"/>
		<path class="st2" d="M102.9,48.3H102l-3.4-5.2v5.2h-0.9v-6.7h0.9l3.4,5.2v-5.2h0.9V48.3z"/>
		<path class="st2" d="M109.5,47.4c-0.2,0.3-0.5,0.6-1,0.7c-0.4,0.2-0.9,0.2-1.4,0.2s-1-0.1-1.5-0.4c-0.4-0.3-0.8-0.6-1-1.1
			s-0.4-1-0.4-1.6v-0.6c0-1,0.2-1.8,0.7-2.4s1.1-0.8,2-0.8c0.7,0,1.3,0.2,1.7,0.5c0.4,0.4,0.7,0.9,0.8,1.5h-0.9
			c-0.2-0.9-0.7-1.3-1.6-1.3c-0.6,0-1,0.2-1.3,0.6c-0.3,0.4-0.5,1-0.5,1.8V45c0,0.8,0.2,1.4,0.5,1.8c0.3,0.4,0.8,0.7,1.4,0.7
			c0.3,0,0.6,0,0.9-0.1c0.2-0.1,0.5-0.2,0.6-0.4v-1.5h-1.6V45h2.4v2.4H109.5z"/>
		<path class="st2" d="M117.3,45.2h-2.9v2.4h3.4v0.7h-4.3v-6.7h4.2v0.7h-3.3v2.2h2.9C117.3,44.5,117.3,45.2,117.3,45.2z"/>
		<path class="st2" d="M121.2,44.2l1.6-2.6h1l-2.1,3.3l2.2,3.4h-1.1l-1.6-2.6l-1.7,2.6h-1l2.2-3.4l-2.1-3.3h1L121.2,44.2z"/>
		<path class="st2" d="M125.9,45.7v2.6H125v-6.7h2.5c0.7,0,1.3,0.2,1.7,0.6c0.4,0.4,0.6,0.9,0.6,1.5c0,0.7-0.2,1.2-0.6,1.5
			c-0.4,0.4-1,0.5-1.7,0.5C127.5,45.7,125.9,45.7,125.9,45.7z M125.9,45h1.6c0.5,0,0.8-0.1,1.1-0.3s0.4-0.5,0.4-1
			c0-0.4-0.1-0.7-0.4-1c-0.3-0.2-0.6-0.4-1-0.4H126V45H125.9z"/>
		<path class="st2" d="M134.9,45.2H132v2.4h3.4v0.7h-4.3v-6.7h4.2v0.7H132v2.2h2.9L134.9,45.2L134.9,45.2z"/>
		<path class="st2" d="M141.7,48.3h-0.9l-3.4-5.2v5.2h-0.9v-6.7h0.9l3.4,5.2v-5.2h0.9V48.3z"/>
		<path class="st2" d="M145.3,45.3c-0.8-0.2-1.3-0.5-1.7-0.8c-0.3-0.3-0.5-0.7-0.5-1.2s0.2-1,0.6-1.3c0.4-0.3,1-0.5,1.6-0.5
			c0.5,0,0.9,0.1,1.2,0.3c0.4,0.2,0.6,0.4,0.8,0.7s0.3,0.7,0.3,1h-0.9c0-0.4-0.1-0.7-0.4-1c-0.3-0.2-0.6-0.3-1.1-0.3
			c-0.4,0-0.8,0.1-1,0.3s-0.4,0.5-0.4,0.8s0.1,0.5,0.3,0.7s0.6,0.4,1.2,0.5c0.6,0.2,1,0.3,1.3,0.5s0.5,0.4,0.7,0.7s0.2,0.5,0.2,0.9
			c0,0.5-0.2,1-0.6,1.3c-0.4,0.3-1,0.5-1.7,0.5c-0.5,0-0.9-0.1-1.3-0.3c-0.4-0.2-0.7-0.4-0.9-0.7s-0.3-0.7-0.3-1h0.9
			c0,0.4,0.1,0.7,0.4,1c0.3,0.2,0.7,0.4,1.2,0.4s0.8-0.1,1.1-0.3c0.2-0.2,0.4-0.5,0.4-0.8s-0.1-0.6-0.3-0.8
			C146.3,45.7,145.9,45.5,145.3,45.3z"/>
		<path class="st2" d="M152.8,45.2h-2.9v2.4h3.4v0.7H149v-6.7h4.2v0.7h-3.3v2.2h2.9L152.8,45.2L152.8,45.2z"/>
	</g>
</g>
<g>
	<path class="st2" d="M160.9,4.4h-2v5.4h-0.5V4.4h-2V3.9h4.5V4.4z"/>
	<path class="st2" d="M162.5,3.9l2.2,5.2l2.2-5.2h0.7v5.9H167V7.2V4.6l-2.2,5.2h-0.4l-2.2-5.1v2.6v2.6h-0.5v-6H162.5z"/>
</g>
</svg>
