<?xml version="1.0" encoding="iso-8859-1"?>
<!-- Generator: Adobe Illustrator 19.2.1, SVG Export Plug-In . SVG Version: 6.00 Build 0)  -->
<svg version="1.1" id="Layer_1" xmlns="http://www.w3.org/2000/svg" xmlns:xlink="http://www.w3.org/1999/xlink" x="0px" y="0px"
	 viewBox="272 256 180 217.672" style="enable-background:new 272 256 180 217.672;" xml:space="preserve">
<g>
	<path style="fill:#FFFFFF;" d="M362.642,264.659c-45.507,0-82.534,37.018-82.534,82.525c0,39.724,50.983,121.488,82.534,121.488
		s82.534-81.764,82.534-121.488C445.176,301.677,408.149,264.659,362.642,264.659z M416.431,347.184
		c0,33.044-42.701,88.978-53.789,92.625c-11.087-3.647-53.789-59.581-53.789-92.625c0-29.659,24.129-53.789,53.789-53.789
		S416.431,317.525,416.431,347.184z"/>
	<path style="fill:#FFFFFF;" d="M362.642,323.082c-13.291,0-24.107,10.816-24.107,24.102c0,13.296,10.816,24.111,24.107,24.111
		s24.107-10.816,24.107-24.111C386.749,333.897,375.933,323.082,362.642,323.082z"/>
</g>
</svg>
