<?xml version="1.0" encoding="iso-8859-1"?>
<!-- Generator: Adobe Illustrator 19.2.1, SVG Export Plug-In . SVG Version: 6.00 Build 0)  -->
<svg version="1.1" id="Capa_1" xmlns="http://www.w3.org/2000/svg" xmlns:xlink="http://www.w3.org/1999/xlink" x="0px" y="0px"
	 viewBox="-49 141 512 512" style="enable-background:new -49 141 512 512;" xml:space="preserve">
<path style="fill:#FFFFFF;" d="M440.8,507.744l-60.171-60.171c-18.928-18.928-49.728-18.928-68.655,0l-27.351,27.351
	c-10.228,10.226-26.868,10.229-37.094,0.006L128.981,356.28c-10.228-10.228-10.228-26.871,0-37.099l27.35-27.35
	c9.144-9.144,14.197-21.3,14.229-34.229c0.032-12.994-5.027-25.226-14.251-34.45L96.16,163.194
	c-18.928-18.928-49.707-18.947-68.593-0.062L5.624,184.884C-24.441,214.95-41,254.985-41,297.616
	c0,42.63,16.557,82.666,46.621,112.729l187.835,187.935c30.134,30.135,70.169,46.73,112.73,46.731c0.003,0-0.001,0,0.002,0
	c42.56,0,82.598-16.598,112.73-46.73l21.882-21.882c9.157-9.156,14.199-21.347,14.199-34.327
	C455,529.092,449.957,516.9,440.8,507.744z M50.331,197.403l5.716-5.667c3.189-3.191,8.387-3.183,11.588,0.016l60.154,59.965
	c3.19,3.19,3.19,8.381,0,11.571l-5.786,5.786L50.331,197.403z M412.26,547.858l-5.786,5.785L334.73,481.9l5.785-5.784
	c3.19-3.191,8.381-3.192,11.573-0.001l60.17,60.171C415.449,539.477,415.449,544.668,412.26,547.858z M34.166,381.806
	C-8.046,339.593-12.537,274.053,22.634,226.79l71.35,71.35c-19.408,26.176-17,63.229,6.449,86.676l120.302,120.403h0.068
	c23.516,21.81,59.354,23.613,84.861,4.702l71.354,71.354C329.786,616.474,264.243,611.982,222,569.74l0.002,0.001L34.166,381.806z"
	/>
</svg>
